<svg version="1.1" xmlns="http://www.w3.org/2000/svg" xmlns:xlink="http://www.w3.org/1999/xlink" role="img" width="246" height="90" viewbox="0 0 246 90"><title>crnn-ctc</title><desc>Generated by logo.svg, https://github.com/bubkoo/logo.svg</desc><path fill="#2b68a7" d="M16.23 70.99Q12.78 70.99 9.96 69.52Q7.14 68.05 5.45 65.14Q3.75 62.22 3.75 57.74Q3.75 54.22 4.97 50.32Q6.18 46.42 8.62 43.02Q11.05 39.63 14.60 37.52Q18.15 35.41 22.82 35.41Q27.62 35.41 29.90 37.30Q32.17 39.18 32.17 41.55Q32.17 43.34 30.70 44.69Q29.22 46.03 26.47 46.03Q26.47 42.96 25.29 40.72Q24.10 38.48 21.54 38.48Q19.50 38.48 17.77 39.86Q16.04 41.23 14.66 43.44Q13.29 45.65 12.36 48.30Q11.43 50.96 10.92 53.58Q10.41 56.21 10.41 58.26Q10.41 62.42 12.20 64.69Q13.99 66.96 17.45 66.96Q20.84 66.96 23.08 65.49Q25.32 64.02 26.66 62.35Q27.30 62.80 27.30 63.95Q27.30 65.36 26.12 66.99Q24.94 68.62 22.50 69.81Q20.07 70.99 16.23 70.99ZM34.98 70.35L40.36 44.62Q40.55 43.73 40.65 42.90Q40.74 42.06 40.74 41.74Q40.74 39.82 39.08 39.28Q37.42 38.74 35.62 38.74L35.11 38.74L35.69 36.05L47.02 36.05L45.67 45.26L46.31 45.26Q47.53 42.64 48.94 40.40Q50.34 38.16 52.33 36.78Q54.31 35.41 57.19 35.41Q59.88 35.41 61.16 36.66Q62.44 37.90 62.44 39.82Q62.44 42.06 61.19 43.38Q59.94 44.69 57.13 44.69Q57.13 42.38 56.62 41.01Q56.10 39.63 54.57 39.63Q52.90 39.63 51.21 41.36Q49.51 43.09 48.01 45.94Q46.50 48.78 45.29 52.14Q44.07 55.50 43.37 58.70L40.94 70.35L34.98 70.35ZM91.56 70.99Q88.74 70.99 87.24 69.20Q85.74 67.41 85.74 64.59Q85.74 61.65 86.95 55.95L88.04 50.96Q88.23 50.13 88.55 48.75Q88.87 47.38 89.13 45.94Q89.38 44.50 89.38 43.34Q89.38 42.06 88.84 40.82Q88.30 39.57 86.44 39.57Q84.39 39.57 82.44 41.04Q80.49 42.51 78.79 44.82Q77.10 47.12 75.91 49.58Q74.73 52.05 74.34 53.97L70.89 70.35L64.94 70.35L70.31 44.62Q70.50 43.73 70.60 42.90Q70.70 42.06 70.70 41.74Q70.70 39.82 69.35 39.28Q68.01 38.74 66.22 38.74L65.70 38.74L66.28 36.05L78.12 36.05L76.39 44.11L77.03 44.11Q79.66 39.89 82.38 37.68Q85.10 35.47 88.68 35.47Q92.46 35.47 93.99 37.62Q95.53 39.76 95.53 42.58Q95.53 44.18 95.11 46.06Q94.70 47.95 94.38 49.62L92.71 57.17Q92.33 58.96 92.10 60.69Q91.88 62.42 91.88 63.89Q91.88 66.96 94.12 66.96Q95.98 66.96 98.22 65.49L99.37 67.34Q97.83 68.62 95.94 69.81Q94.06 70.99 91.56 70.99ZM129.90 70.99Q127.08 70.99 125.58 69.20Q124.07 67.41 124.07 64.59Q124.07 61.65 125.29 55.95L126.38 50.96Q126.57 50.13 126.89 48.75Q127.21 47.38 127.46 45.94Q127.72 44.50 127.72 43.34Q127.72 42.06 127.18 40.82Q126.63 39.57 124.78 39.57Q122.73 39.57 120.78 41.04Q118.82 42.51 117.13 44.82Q115.43 47.12 114.25 49.58Q113.06 52.05 112.68 53.97L109.22 70.35L103.27 70.35L108.65 44.62Q108.84 43.73 108.94 42.90Q109.03 42.06 109.03 41.74Q109.03 39.82 107.69 39.28Q106.34 38.74 104.55 38.74L104.04 38.74L104.62 36.05L116.46 36.05L114.73 44.11L115.37 44.11Q117.99 39.89 120.71 37.68Q123.43 35.47 127.02 35.47Q130.79 35.47 132.33 37.62Q133.86 39.76 133.86 42.58Q133.86 44.18 133.45 46.06Q133.03 47.95 132.71 49.62L131.05 57.17Q130.66 58.96 130.44 60.69Q130.22 62.42 130.22 63.89Q130.22 66.96 132.46 66.96Q134.31 66.96 136.55 65.49L137.70 67.34Q136.17 68.62 134.28 69.81Q132.39 70.99 129.90 70.99ZM139.69 55.31L140.71 50.51L157.35 50.51L156.33 55.31L139.69 55.31ZM173.86 70.99Q170.41 70.99 167.59 69.52Q164.78 68.05 163.08 65.14Q161.38 62.22 161.38 57.74Q161.38 54.22 162.60 50.32Q163.82 46.42 166.25 43.02Q168.68 39.63 172.23 37.52Q175.78 35.41 180.46 35.41Q185.26 35.41 187.53 37.30Q189.80 39.18 189.80 41.55Q189.80 43.34 188.33 44.69Q186.86 46.03 184.10 46.03Q184.10 42.96 182.92 40.72Q181.74 38.48 179.18 38.48Q177.13 38.48 175.40 39.86Q173.67 41.23 172.30 43.44Q170.92 45.65 169.99 48.30Q169.06 50.96 168.55 53.58Q168.04 56.21 168.04 58.26Q168.04 62.42 169.83 64.69Q171.62 66.96 175.08 66.96Q178.47 66.96 180.71 65.49Q182.95 64.02 184.30 62.35Q184.94 62.80 184.94 63.95Q184.94 65.36 183.75 66.99Q182.57 68.62 180.14 69.81Q177.70 70.99 173.86 70.99ZM201.51 70.99Q194.54 70.99 194.54 63.50Q194.54 62.35 194.73 60.85Q194.92 59.34 195.18 58.13L199.08 39.70L194.22 39.70L194.79 37.14Q197.54 37.14 200.10 35.12Q202.66 33.10 204.58 28.18L207.53 28.18L205.86 36.05L213.61 36.05L212.84 39.70L205.10 39.70L201.19 57.94Q200.87 59.54 200.65 60.98Q200.42 62.42 200.42 63.44Q200.42 65.30 201.32 66.13Q202.22 66.96 203.82 66.96Q205.16 66.96 206.57 66.54Q207.98 66.13 209.06 65.55L210.15 67.92Q208.23 69.26 206.06 70.13Q203.88 70.99 201.51 70.99ZM228.58 70.99Q225.13 70.99 222.31 69.52Q219.50 68.05 217.80 65.14Q216.10 62.22 216.10 57.74Q216.10 54.22 217.32 50.32Q218.54 46.42 220.97 43.02Q223.40 39.63 226.95 37.52Q230.50 35.41 235.18 35.41Q239.98 35.41 242.25 37.30Q244.52 39.18 244.52 41.55Q244.52 43.34 243.05 44.69Q241.58 46.03 238.82 46.03Q238.82 42.96 237.64 40.72Q236.46 38.48 233.90 38.48Q231.85 38.48 230.12 39.86Q228.39 41.23 227.02 43.44Q225.64 45.65 224.71 48.30Q223.78 50.96 223.27 53.58Q222.76 56.21 222.76 58.26Q222.76 62.42 224.55 64.69Q226.34 66.96 229.80 66.96Q233.19 66.96 235.43 65.49Q237.67 64.02 239.02 62.35Q239.66 62.80 239.66 63.95Q239.66 65.36 238.47 66.99Q237.29 68.62 234.86 69.81Q232.42 70.99 228.58 70.99Z"></path></svg>